<?xml version="1.0" encoding="UTF-8" standalone="no"?>
<!DOCTYPE svg PUBLIC "-//W3C//DTD SVG 1.1//EN" "http://www.w3.org/Graphics/SVG/1.1/DTD/svg11.dtd">
<svg width="100%" height="100%" viewBox="0 0 41 36" version="1.1" xmlns="http://www.w3.org/2000/svg" xmlns:xlink="http://www.w3.org/1999/xlink" xml:space="preserve" xmlns:serif="http://www.serif.com/" style="fill-rule:evenodd;clip-rule:evenodd;stroke-linejoin:round;stroke-miterlimit:1.41421;">
    <g transform="matrix(0.9,0,0,0.9,0.206939,-8.05098)">
        <g transform="matrix(0.971349,0,0,0.966243,1.15782,-0.60004)">
            <g>
                <path d="M42.538,9.893L42.62,9.897L42.749,9.919L42.874,9.958L42.994,10.012L43.105,10.081L43.207,10.164L43.298,10.259L43.376,10.365L43.44,10.48L43.489,10.602L43.522,10.73L44.512,15.887L44.529,16.017L44.529,16.148L44.512,16.278L44.48,16.405L44.431,16.527L44.368,16.641L44.291,16.747L44.201,16.842L44.1,16.925L43.99,16.994L43.871,17.049L43.747,17.088L43.618,17.111L43.488,17.118L43.358,17.108L43.231,17.082L41.711,16.665L41.66,16.797L41.58,17L41.5,17.201L41.419,17.4L41.338,17.596L41.257,17.79L41.176,17.982L41.094,18.172L41.012,18.36L40.93,18.545L40.847,18.729L40.764,18.91L40.681,19.089L40.598,19.266L40.514,19.44L40.43,19.613L40.346,19.784L40.262,19.952L40.177,20.119L40.092,20.283L40.006,20.445L39.921,20.606L39.835,20.764L39.749,20.921L39.662,21.075L39.575,21.227L39.488,21.378L39.401,21.526L39.313,21.673L39.225,21.817L39.137,21.96L39.049,22.101L38.96,22.239L38.871,22.376L38.781,22.512L38.691,22.645L38.601,22.776L38.511,22.906L38.42,23.033L38.329,23.159L38.238,23.284L38.136,23.42L38.033,23.554L37.93,23.686L37.826,23.816L37.723,23.944L37.618,24.07L37.514,24.193L37.408,24.314L37.303,24.433L37.197,24.55L37.091,24.665L36.984,24.778L36.877,24.889L36.77,24.997L36.662,25.104L36.554,25.208L36.445,25.311L36.336,25.411L36.227,25.509L36.117,25.606L36.007,25.7L35.897,25.793L35.786,25.883L35.675,25.972L35.563,26.058L35.451,26.143L35.339,26.225L35.226,26.306L35.113,26.385L35,26.462L34.886,26.537L34.773,26.61L34.658,26.681L34.544,26.751L34.429,26.818L34.314,26.884L34.199,26.948L34.083,27.01L33.967,27.07L33.851,27.129L33.735,27.186L33.618,27.241L33.501,27.294L33.384,27.346L33.267,27.396L33.15,27.444L33.032,27.49L32.914,27.535L32.796,27.578L32.678,27.62L32.56,27.66L32.442,27.698L32.323,27.735L32.205,27.771L32.086,27.804L31.968,27.837L31.849,27.867L31.73,27.897L31.611,27.925L31.492,27.951L31.373,27.976L31.254,28L31.135,28.022L31.016,28.043L30.9,28.062L30.784,28.08L30.668,28.096L30.552,28.112L30.436,28.126L30.32,28.139L30.204,28.151L30.088,28.162L29.973,28.171L29.857,28.18L29.741,28.187L29.625,28.194L29.509,28.2L29.394,28.204L29.278,28.208L29.163,28.21L29.047,28.212L28.932,28.213L28.816,28.213L28.701,28.212L28.585,28.21L28.468,28.207L28.24,28.199L28.01,28.188L27.78,28.174L27.55,28.158L27.321,28.138L27.092,28.117L26.863,28.093L26.635,28.066L26.407,28.038L26.179,28.007L25.951,27.975L25.724,27.942L25.497,27.907L25.27,27.87L25.043,27.832L24.817,27.794L24.59,27.754L24.141,27.672L23.691,27.588L22.795,27.418L22.349,27.334L21.904,27.252L21.683,27.212L21.462,27.173L21.241,27.135L21.021,27.098L20.801,27.062L20.582,27.027L20.363,26.994L20.144,26.963L19.926,26.933L19.709,26.905L19.492,26.879L19.275,26.856L19.059,26.834L18.844,26.814L18.629,26.797L18.415,26.783L18.201,26.771L17.988,26.761L17.774,26.755L17.67,26.753L17.564,26.751L17.458,26.75L17.353,26.751L17.248,26.751L17.142,26.753L17.037,26.756L16.932,26.759L16.828,26.763L16.723,26.768L16.619,26.774L16.515,26.78L16.41,26.788L16.306,26.796L16.203,26.806L16.099,26.816L15.995,26.827L15.892,26.84L15.789,26.853L15.686,26.867L15.583,26.882L15.48,26.898L15.377,26.915L15.275,26.933L15.172,26.952L15.07,26.972L14.968,26.994L14.866,27.016L14.764,27.039L14.662,27.064L14.56,27.09L14.459,27.116L14.357,27.144L14.256,27.173L14.154,27.204L14.053,27.235L13.952,27.268L13.851,27.302L13.75,27.337L13.649,27.373L13.548,27.411L13.447,27.45L13.346,27.49L13.245,27.532L13.144,27.575L13.043,27.619L12.943,27.665L12.842,27.712L12.741,27.76L12.64,27.81L12.54,27.862L12.439,27.914L12.338,27.969L12.238,28.025L12.137,28.082L12.036,28.141L11.935,28.201L11.835,28.264L11.734,28.327L11.633,28.393L11.532,28.46L11.431,28.528L11.33,28.599L11.229,28.671L11.128,28.744L11.027,28.82L10.926,28.897L10.825,28.976L10.724,29.057L10.622,29.14L10.521,29.225L10.42,29.311L10.318,29.399L10.217,29.49L10.115,29.582L10.014,29.676L9.912,29.772L9.811,29.87L9.709,29.971L9.607,30.073L9.506,30.177L9.404,30.283L9.302,30.392L9.2,30.502L9.098,30.615L8.996,30.73L8.895,30.847L8.793,30.966L8.691,31.088L8.589,31.211L8.487,31.337L8.385,31.465L8.283,31.596L8.181,31.729L8.078,31.864L7.976,32.001L7.874,32.141L7.772,32.283L7.67,32.428L7.568,32.575L7.466,32.724L7.364,32.876L7.262,33.03L7.161,33.187L7.059,33.346L6.957,33.508L6.855,33.672L6.753,33.839L6.651,34.009L6.55,34.181L6.448,34.355L6.346,34.532L6.245,34.712L6.143,34.895L6.042,35.08L5.941,35.268L5.839,35.458L5.738,35.651L5.637,35.847L5.536,36.046L5.435,36.247L5.334,36.452L5.233,36.659L5.132,36.869L5.032,37.081L4.931,37.297L4.83,37.515L4.73,37.736L4.63,37.96L4.53,38.187L4.43,38.417L4.33,38.65L4.23,38.886L4.13,39.125L4.03,39.366L3.931,39.611L3.832,39.859L3.732,40.109L3.632,40.367L3.532,40.627L3.431,40.89L3.332,41.157L3.232,41.426L3.132,41.699L3.032,41.975L2.933,42.255L2.834,42.537L2.735,42.823L2.636,43.112L2.537,43.405L2.438,43.7L2.34,43.999L2.241,44.302L2.143,44.608L2.045,44.917L1.947,45.229L1.85,45.545L1.752,45.865L1.655,46.187L1.558,46.514L1.461,46.843L1.364,47.177L1.267,47.513L1.171,47.854L1.075,48.197L0.979,48.545L0.883,48.896L0.787,49.25L0.692,49.608L0.596,49.971L0.555,50.095L0.499,50.212L0.429,50.321L0.346,50.421L0.251,50.509L0.146,50.585L0.032,50.646L-0.088,50.693L-0.214,50.725L-0.342,50.74L-0.472,50.739L-0.6,50.722L-0.725,50.688L-0.845,50.64L-0.957,50.576L-1.061,50.499L-1.155,50.409L-1.237,50.309L-1.305,50.198L-1.359,50.08L-1.398,49.956L-1.422,49.829L-1.429,49.699L-1.42,49.569L-1.394,49.442L-1.298,49.075L-1.201,48.711L-1.104,48.351L-1.006,47.994L-0.908,47.64L-0.81,47.29L-0.712,46.943L-0.613,46.6L-0.515,46.26L-0.416,45.924L-0.317,45.591L-0.217,45.261L-0.118,44.935L-0.018,44.612L0.082,44.292L0.183,43.976L0.283,43.662L0.384,43.353L0.485,43.046L0.586,42.743L0.687,42.443L0.789,42.146L0.891,41.852L0.993,41.561L1.095,41.274L1.198,40.99L1.3,40.708L1.403,40.43L1.507,40.155L1.61,39.883L1.714,39.614L1.817,39.349L1.92,39.089L2.023,38.832L2.126,38.579L2.23,38.328L2.333,38.08L2.437,37.835L2.541,37.592L2.645,37.353L2.75,37.116L2.855,36.882L2.959,36.651L3.065,36.422L3.17,36.197L3.275,35.974L3.381,35.754L3.487,35.536L3.593,35.321L3.7,35.109L3.806,34.899L3.913,34.692L4.02,34.488L4.128,34.286L4.235,34.087L4.343,33.89L4.451,33.696L4.559,33.505L4.668,33.315L4.776,33.129L4.885,32.945L4.994,32.763L5.104,32.584L5.213,32.407L5.323,32.233L5.433,32.061L5.543,31.891L5.654,31.724L5.764,31.559L5.875,31.397L5.986,31.236L6.098,31.079L6.21,30.923L6.321,30.77L6.434,30.619L6.546,30.47L6.659,30.323L6.771,30.179L6.884,30.037L6.998,29.897L7.111,29.759L7.225,29.624L7.339,29.491L7.454,29.359L7.568,29.23L7.683,29.103L7.798,28.978L7.913,28.856L8.029,28.735L8.144,28.616L8.26,28.5L8.377,28.385L8.493,28.273L8.61,28.162L8.727,28.054L8.844,27.947L8.961,27.843L9.079,27.74L9.197,27.639L9.315,27.541L9.433,27.444L9.552,27.349L9.671,27.256L9.79,27.165L9.909,27.076L10.028,26.989L10.148,26.904L10.268,26.82L10.388,26.739L10.508,26.659L10.628,26.581L10.749,26.505L10.87,26.43L10.99,26.358L11.112,26.287L11.233,26.218L11.354,26.151L11.476,26.085L11.597,26.021L11.719,25.959L11.841,25.899L11.963,25.84L12.085,25.783L12.208,25.727L12.33,25.674L12.452,25.621L12.575,25.571L12.697,25.522L12.82,25.475L12.943,25.429L13.066,25.384L13.188,25.342L13.311,25.301L13.434,25.261L13.557,25.223L13.68,25.186L13.803,25.151L13.926,25.117L14.049,25.085L14.172,25.054L14.295,25.024L14.417,24.996L14.54,24.969L14.663,24.943L14.786,24.919L14.909,24.896L15.031,24.875L15.154,24.854L15.276,24.835L15.399,24.817L15.521,24.8L15.643,24.785L15.765,24.77L15.887,24.757L16.009,24.745L16.131,24.734L16.253,24.724L16.375,24.715L16.496,24.708L16.618,24.701L16.739,24.695L16.86,24.69L16.981,24.686L17.102,24.684L17.223,24.682L17.344,24.681L17.464,24.681L17.584,24.681L17.705,24.683L17.826,24.685L18.064,24.693L18.304,24.703L18.542,24.717L18.78,24.733L19.018,24.752L19.254,24.773L19.49,24.797L19.726,24.823L19.961,24.851L20.195,24.881L20.428,24.913L20.661,24.946L20.893,24.981L21.125,25.018L21.355,25.055L21.586,25.094L21.815,25.134L22.044,25.174L22.272,25.215L22.725,25.299L23.176,25.384L24.069,25.554L24.511,25.636L24.95,25.716L25.168,25.754L25.385,25.791L25.601,25.827L25.816,25.862L26.031,25.895L26.244,25.927L26.457,25.957L26.668,25.985L26.879,26.011L27.088,26.035L27.297,26.057L27.504,26.077L27.71,26.094L27.916,26.109L28.12,26.121L28.323,26.131L28.527,26.138L28.626,26.14L28.726,26.142L28.826,26.143L28.926,26.143L29.025,26.142L29.125,26.141L29.223,26.138L29.322,26.135L29.42,26.132L29.518,26.127L29.616,26.121L29.714,26.115L29.811,26.108L29.908,26.1L30.004,26.091L30.101,26.081L30.197,26.07L30.293,26.058L30.388,26.045L30.483,26.032L30.578,26.017L30.673,26.002L30.77,25.985L30.867,25.967L30.963,25.947L31.06,25.927L31.156,25.906L31.251,25.884L31.347,25.86L31.442,25.835L31.537,25.809L31.632,25.782L31.727,25.754L31.821,25.725L31.915,25.694L32.009,25.663L32.103,25.629L32.196,25.595L32.29,25.56L32.383,25.523L32.476,25.484L32.569,25.445L32.662,25.404L32.755,25.362L32.847,25.318L32.94,25.273L33.032,25.226L33.124,25.178L33.216,25.129L33.308,25.078L33.4,25.025L33.492,24.971L33.584,24.916L33.675,24.858L33.767,24.8L33.858,24.739L33.95,24.677L34.041,24.613L34.133,24.548L34.224,24.48L34.316,24.411L34.407,24.341L34.498,24.268L34.589,24.193L34.681,24.117L34.772,24.039L34.863,23.959L34.954,23.877L35.045,23.793L35.136,23.707L35.227,23.619L35.318,23.529L35.409,23.437L35.5,23.343L35.591,23.247L35.682,23.149L35.773,23.049L35.863,22.946L35.954,22.841L36.045,22.735L36.135,22.625L36.226,22.514L36.317,22.401L36.407,22.285L36.497,22.166L36.588,22.046L36.669,21.936L36.749,21.824L36.83,21.711L36.911,21.595L36.991,21.477L37.072,21.358L37.152,21.236L37.232,21.113L37.313,20.988L37.393,20.86L37.473,20.731L37.553,20.599L37.633,20.466L37.712,20.33L37.792,20.192L37.872,20.053L37.951,19.911L38.031,19.767L38.11,19.621L38.189,19.473L38.268,19.322L38.347,19.17L38.426,19.015L38.505,18.858L38.583,18.699L38.661,18.537L38.74,18.374L38.818,18.208L38.896,18.04L38.974,17.87L39.051,17.697L39.129,17.522L39.206,17.345L39.284,17.165L39.361,16.984L39.438,16.799L39.515,16.613L39.591,16.424L39.668,16.233L39.713,16.118L38.531,15.794L38.406,15.751L38.287,15.692L38.178,15.618L38.078,15.532L37.99,15.432L37.916,15.323L37.856,15.205L37.812,15.08L37.784,14.95L37.772,14.818L37.778,14.686L37.8,14.555L37.839,14.428L37.893,14.307L37.963,14.195L38.046,14.092L41.621,10.211L41.715,10.121L41.819,10.044L41.932,9.981L42.052,9.932L42.177,9.899L42.305,9.882L42.434,9.881L42.538,9.893Z" style="fill:rgb(110,0,125);"/>
                <g transform="matrix(1,0,0,1.04521,-0.28629,-3.30388)">
                    <ellipse cx="3.819" cy="39.763" rx="2.424" ry="2.296" style="fill:rgb(110,0,125);"/>
                </g>
                <g transform="matrix(1,0,0,1.04521,5.72286,-12.735)">
                    <ellipse cx="3.819" cy="39.763" rx="2.424" ry="2.296" style="fill:rgb(110,0,125);"/>
                </g>
                <g transform="matrix(1,0,0,1.04521,15.9476,-15.6343)">
                    <ellipse cx="3.819" cy="39.763" rx="2.424" ry="2.296" style="fill:rgb(110,0,125);"/>
                </g>
                <g transform="matrix(1,0,0,1.04521,27.2634,-14.7243)">
                    <ellipse cx="3.819" cy="39.763" rx="2.424" ry="2.296" style="fill:rgb(110,0,125);"/>
                </g>
            </g>
        </g>
    </g>
</svg>
